<svg width="350" height="251" viewBox="0 0 350 251" fill="none" xmlns="http://www.w3.org/2000/svg">
<path d="M300.2 125.1C251.124 129.562 222.927 133.666 205.617 147.229C185.272 163.112 180.454 192.201 175.1 250.379C169.568 190.059 164.571 161.149 142.263 145.623C124.953 133.488 96.9348 129.562 50 125.278C98.8979 120.817 127.273 116.712 144.405 103.328C164.928 87.2667 169.746 58.3562 175.1 0C180.097 53.7163 184.558 82.4482 201.155 99.045C217.752 115.642 246.662 120.282 300.2 125.1Z" fill="black"/>
<path d="M349.5 125C349.5 131.65 344.779 138.096 335.968 144.048C327.174 149.988 314.416 155.358 298.606 159.875C266.994 168.907 223.292 174.5 175 174.5C126.708 174.5 83.0064 168.907 51.3937 159.875C35.5839 155.358 22.8261 149.988 14.0322 144.048C5.22092 138.096 0.5 131.65 0.5 125C0.5 118.35 5.22092 111.904 14.0322 105.952C22.8261 100.012 35.5839 94.6425 51.3937 90.1254C83.0064 81.0932 126.708 75.5 175 75.5C223.292 75.5 266.994 81.0932 298.606 90.1254C314.416 94.6425 327.174 100.012 335.968 105.952C344.779 111.904 349.5 118.35 349.5 125Z" stroke="black"/>
</svg>
